<?xml version="1.0" encoding="UTF-8" standalone="no"?>
<svg width="1024" height="1024" viewBox="0 0 1024 1024" fill="none" xmlns="http://www.w3.org/2000/svg">
  <rect width="1024" height="1024" fill="#3E64FF"/>
  <path d="M512 192C335.4 192 192 335.4 192 512C192 688.6 335.4 832 512 832C688.6 832 832 688.6 832 512C832 335.4 688.6 192 512 192ZM512 256C653.4 256 768 370.6 768 512C768 653.4 653.4 768 512 768C370.6 768 256 653.4 256 512C256 370.6 370.6 256 512 256Z" fill="white"/>
  <path d="M448 384H512V576H448V384Z" fill="white"/>
  <path d="M448 624H512V688H448V624Z" fill="white"/>
  <path d="M320 448H704V512H320V448Z" fill="white"/>
</svg>