<?xml version="1.0" encoding="UTF-8" standalone="no"?>
<svg width="1242" height="2688" viewBox="0 0 1242 2688" fill="none" xmlns="http://www.w3.org/2000/svg">
  <rect width="1242" height="2688" fill="#3E64FF"/>
  <text x="621" y="1344" font-family="Arial" font-size="72" fill="white" text-anchor="middle">Human Rights Intelligence</text>
  <path d="M621 1044C444.4 1044 301 1187.4 301 1364C301 1540.6 444.4 1684 621 1684C797.6 1684 941 1540.6 941 1364C941 1187.4 797.6 1044 621 1044ZM621 1108C762.4 1108 877 1222.6 877 1364C877 1505.4 762.4 1620 621 1620C479.6 1620 365 1505.4 365 1364C365 1222.6 479.6 1108 621 1108Z" fill="white"/>
  <path d="M557 1236H621V1428H557V1236Z" fill="white"/>
  <path d="M557 1476H621V1540H557V1476Z" fill="white"/>
  <path d="M429 1300H813V1364H429V1300Z" fill="white"/>
</svg>